HIERARCHY
ROOT Hips
{
  OFFSET 52.0033 56.1716 5.57464
  CHANNELS 6 Xposition Yposition Zposition Zrotation Xrotation Yrotation
  JOINT spine
  {
    OFFSET 0 6.3926 0.367606
    CHANNELS 3 Zrotation Xrotation Yrotation
    JOINT spine1
    {
      OFFSET 0 9.17611 0
      CHANNELS 3 Zrotation Xrotation Yrotation
      JOINT spine2
      {
        OFFSET 0 8.79238 0
        CHANNELS 3 Zrotation Xrotation Yrotation
        JOINT Neck
        {
          OFFSET 0 22.5737 1.07624
          CHANNELS 3 Zrotation Xrotation Yrotation
          JOINT Head
          {
            OFFSET 0 6.82011 0
            CHANNELS 3 Zrotation Xrotation Yrotation
            End Site
            {
              OFFSET 0 16.5085 -5.44426
            }
          }
        }
        JOINT RightShoulder
        {
          OFFSET -3.70221 9.49509 -0.515508
          CHANNELS 3 Zrotation Xrotation Yrotation
          JOINT RightArm
          {
            OFFSET 0 12.4537 0
            CHANNELS 3 Zrotation Xrotation Yrotation
            JOINT RightArmRoll
            {
              OFFSET 0 6.28685 0
              CHANNELS 3 Zrotation Xrotation Yrotation
              JOINT RightForeArm
              {
                OFFSET 0 18.3114 0
                CHANNELS 3 Zrotation Xrotation Yrotation
                JOINT RightForeArmRoll
                {
                  OFFSET 0 7.05482 0
                  CHANNELS 3 Zrotation Xrotation Yrotation
                  JOINT RightHand
                  {
                    OFFSET 0 14.1575 0
                    CHANNELS 3 Zrotation Xrotation Yrotation
                    End Site
                    {
                      OFFSET 0 0 0
                    }
                  }
                }
              }
            }
          }
        }
        JOINT LeftShoulder
        {
          OFFSET 3.70221 9.49509 -0.515508
          CHANNELS 3 Zrotation Xrotation Yrotation
          JOINT LeftArm
          {
            OFFSET 0 12.4537 0
            CHANNELS 3 Zrotation Xrotation Yrotation
            JOINT LeftArmRoll
            {
              OFFSET 0 6.28686 0
              CHANNELS 3 Zrotation Xrotation Yrotation
              JOINT LeftForeArm
              {
                OFFSET 0 18.3114 0
                CHANNELS 3 Zrotation Xrotation Yrotation
                JOINT LeftForeArmRoll
                {
                  OFFSET 0 7.05483 0
                  CHANNELS 3 Zrotation Xrotation Yrotation
                  JOINT LeftHand
                  {
                    OFFSET 0 14.1575 0
                    CHANNELS 3 Zrotation Xrotation Yrotation
                    End Site
                    {
                      OFFSET 0 0 0
                    }
                  }
                }
              }
            }
          }
        }
      }
    }
  }
  JOINT RightUpLeg
  {
    OFFSET -5.66616 -1.03903 -0.87161
    CHANNELS 3 Zrotation Xrotation Yrotation
    JOINT RightUpLegRoll
    {
      OFFSET 0 16.6005 0
      CHANNELS 3 Zrotation Xrotation Yrotation
      JOINT RightLeg
      {
        OFFSET 0 -20.5572 0
        CHANNELS 3 Zrotation Xrotation Yrotation
        JOINT RightLegRoll
        {
          OFFSET 0 20.6244 0
          CHANNELS 3 Zrotation Xrotation Yrotation
          JOINT RightFoot
          {
            OFFSET 0 17.1664 0
            CHANNELS 3 Zrotation Xrotation Yrotation
            JOINT RightToeBase
            {
              OFFSET 0 14.3502 0
              CHANNELS 3 Zrotation Xrotation Yrotation
              End Site
              {
                OFFSET 0.00608252 6.94971 -0.80106
              }
            }
          }
        }
      }
    }
  }
  JOINT LeftUpLeg
  {
    OFFSET 5.66616 -1.03903 -0.87161
    CHANNELS 3 Zrotation Xrotation Yrotation
    JOINT LeftUpLegRoll
    {
      OFFSET 0 16.6006 0
      CHANNELS 3 Zrotation Xrotation Yrotation
      JOINT LeftLeg
      {
        OFFSET 0 20.5571 0
        CHANNELS 3 Zrotation Xrotation Yrotation
        JOINT LeftLegRoll
        {
          OFFSET 0 20.8151 0
          CHANNELS 3 Zrotation Xrotation Yrotation
          JOINT LeftFoot
          {
            OFFSET 0 16.9757 0
            CHANNELS 3 Zrotation Xrotation Yrotation
            JOINT LeftToeBase
            {
              OFFSET 0 14.3502 0
              CHANNELS 3 Zrotation Xrotation Yrotation
              End Site
              {
                OFFSET -0.0272592 6.94971 -0.80106
              }
            }
          }
        }
      }
    }
  }
}
MOTION
Frames: 11
Frame Time: 0.00208333
53.9192 85.8825 45.8371 -1.4129 -3.97159 -0.165198 -0.0926352 -1.28849 -0.299608 -0.174847 1.43141 -0.591903 -0.16788 3.07645 -0.589315 1.56685 8.08497 0.730402 -0.342254 3.46103 1.16 59.4486 -3.01088 -1.89263 111.881 17.4458 -0.685003 -4.53704e-008 -2.84039e-006 -3.13852e-006 15.6541 6.57077 -1.12753 -3.40143e-006 -4.95316e-006 -3 8.02897 -4.95145 0.69771 -53.8277 -4.86042 2.65405 -114.962 15.6782 5.78834 -4.45843e-006 -1.45764e-006 8.26897e-006 -13.6397 6.15054 1.12941 1.56319e-005 -6.84274e-006 3.00001 -8.02889 -4.95143 -0.69771 177.533 -2.42336 0.959309 -180 7.01549e-015 178.934 175.384 6.17782 179.844 -1.9828e-006 2.18575e-006 0.0661591 -17.945 67.1855 18.9093 8.13649 25.2327 -3.48774 -175.661 -3.63808 0.693525 4.54188e-006 -4.6773e-006 -1.15964 -0.877716 -6.51716 0.417072 -1.60808e-006 -3.04593e-006 -0.106267 19.543 69.0742 -20.4698 -8.14761 25.4096 3.24853 
53.92 85.8827 45.8304 -1.4113 -3.9748 -0.167576 -0.092482 -1.2878 -0.299911 -0.175487 1.43243 -0.592393 -0.168515 3.07747 -0.589795 1.5652 8.09748 0.72993 -0.341774 3.4511 1.15921 59.4513 -3.00447 -1.88893 111.871 17.4423 -0.679092 -4.53704e-008 -2.84039e-006 -3.13852e-006 15.6538 6.56477 -1.1255 -3.40143e-006 -4.95316e-006 -3 8.02897 -4.95145 0.69771 -53.8262 -4.86217 2.65516 -114.96 15.6757 5.78389 -4.45843e-006 -1.45764e-006 8.26897e-006 -13.6377 6.15448 1.13003 1.56319e-005 -6.84274e-006 3.00001 -8.02889 -4.95143 -0.69771 177.536 -2.42476 0.954075 -180 7.01549e-015 178.934 175.392 6.17835 179.843 -1.9828e-006 2.18575e-006 0.0661706 -17.9448 67.1852 18.909 8.13649 25.2327 -3.48774 -175.663 -3.63903 0.693606 4.54188e-006 -4.6773e-006 -1.1597 -0.878374 -6.52051 0.417068 -1.60808e-006 -3.04593e-006 -0.106287 19.5432 69.0746 -20.4702 -8.14762 25.4097 3.24837 
53.9333 85.8771 45.8423 -1.40962 -3.97811 -0.170116 -0.0923224 -1.2871 -0.300217 -0.176114 1.43345 -0.592915 -0.169138 3.0785 -0.590307 1.56248 8.11073 0.729682 -0.340029 3.44017 1.15841 59.4537 -2.99768 -1.88497 111.862 17.4388 -0.67315 -4.53704e-008 -2.84039e-006 -3.13852e-006 15.6534 6.55858 -1.12341 -3.40143e-006 -4.95316e-006 -3 8.02897 -4.95145 0.69771 -53.8249 -4.86435 2.65656 -114.959 15.6734 5.7796 -4.45843e-006 -1.45764e-006 8.26897e-006 -13.6357 6.1585 1.13067 1.56319e-005 -6.84274e-006 3.00001 -8.02889 -4.95143 -0.69771 177.538 -2.42628 0.94982 -180 7.01549e-015 178.934 175.399 6.17879 179.842 -1.9828e-006 2.18575e-006 0.0661877 -17.9445 67.1848 18.9089 8.13649 25.2327 -3.48774 -175.664 -3.64043 0.693621 4.54188e-006 -4.6773e-006 -1.15976 -0.879189 -6.52328 0.41704 -1.60808e-006 -3.04593e-006 -0.106281 19.5432 69.0745 -20.4701 -8.14763 25.4099 3.24813 
53.9222 85.88 45.8419 -1.40788 -3.98148 -0.172769 -0.0921583 -1.28639 -0.300524 -0.176732 1.43448 -0.593459 -0.169751 3.07953 -0.590842 1.55902 8.12451 0.729591 -0.337399 3.42852 1.15763 59.4559 -2.99062 -1.88083 111.852 17.4353 -0.667188 -4.53704e-008 -2.84039e-006 -3.13852e-006 15.653 6.55224 -1.12128 -3.40143e-006 -4.95316e-006 -3 8.02897 -4.95145 0.69771 -53.8236 -4.86683 2.65818 -114.958 15.6712 5.77541 -4.45843e-006 -1.45764e-006 8.26897e-006 -13.6338 6.16258 1.13131 1.56319e-005 -6.84274e-006 3.00001 -8.02889 -4.95143 -0.69771 177.539 -2.42787 0.94625 -180 7.01549e-015 178.934 175.405 6.17916 179.841 -1.9828e-006 2.18575e-006 0.0662088 -17.9443 67.1845 18.9089 8.13649 25.2327 -3.48774 -175.666 -3.64214 0.693591 4.54188e-006 -4.6773e-006 -1.15983 -0.880113 -6.52565 0.416996 -1.60808e-006 -3.04593e-006 -0.106258 19.5429 69.0741 -20.4699 -8.14765 25.4101 3.24783 
53.9255 85.8765 45.8386 -1.40612 -3.9849 -0.175487 -0.0919916 -1.28567 -0.300833 -0.177345 1.43551 -0.594016 -0.17036 3.08056 -0.591389 1.55512 8.1386 0.729589 -0.334263 3.41647 1.15684 59.458 -2.9834 -1.87659 111.843 17.4318 -0.661213 -4.53704e-008 -2.84039e-006 -3.13852e-006 15.6525 6.54583 -1.11912 -3.40143e-006 -4.95316e-006 -3 8.02897 -4.95145 0.69771 -53.8223 -4.86947 2.65992 -114.957 15.669 5.77129 -4.45843e-006 -1.45764e-006 8.26897e-006 -13.6319 6.16669 1.13197 1.56319e-005 -6.84274e-006 3.00001 -8.02889 -4.95143 -0.69771 177.54 -2.42951 0.943073 -180 7.01549e-015 178.934 175.41 6.1795 179.84 -1.9828e-006 2.18575e-006 0.0662321 -17.9441 67.1843 18.9088 8.13649 25.2327 -3.48774 -175.668 -3.64403 0.693534 4.54188e-006 -4.6773e-006 -1.1599 -0.881099 -6.52779 0.416943 -1.60808e-006 -3.04593e-006 -0.106224 19.5425 69.0736 -20.4695 -8.14766 25.4103 3.2475 
53.9283 85.8806 45.8428 -1.40435 -3.98832 -0.17822 -0.0918242 -1.28495 -0.301142 -0.177957 1.43655 -0.594576 -0.170967 3.08159 -0.59194 1.55113 8.15275 0.729611 -0.331001 3.40433 1.15605 59.4601 -2.97615 -1.87232 111.834 17.4283 -0.655235 -4.53704e-008 -2.84039e-006 -3.13852e-006 15.652 6.53939 -1.11695 -3.40143e-006 -4.95316e-006 -3 8.02897 -4.95145 0.69771 -53.8211 -4.87216 2.66169 -114.955 15.6669 5.76717 -4.45843e-006 -1.45764e-006 8.26897e-006 -13.6301 6.1708 1.13262 1.56319e-005 -6.84274e-006 3.00001 -8.02889 -4.95143 -0.69771 177.541 -2.43116 0.939993 -180 7.01549e-015 178.934 175.416 6.1798 179.84 -1.9828e-006 2.18575e-006 0.0662559 -17.9439 67.184 18.9088 8.13649 25.2327 -3.48774 -175.67 -3.64597 0.693471 4.54188e-006 -4.6773e-006 -1.15997 -0.882102 -6.52987 0.416887 -1.60808e-006 -3.04593e-006 -0.106187 19.5421 69.0731 -20.469 -8.14768 25.4106 3.24716 
53.9229 85.8786 45.8273 -1.40259 -3.99173 -0.180921 -0.0916582 -1.28424 -0.30145 -0.178571 1.43758 -0.59513 -0.171576 3.08263 -0.592485 1.54734 8.16676 0.729587 -0.327992 3.39238 1.15526 59.4622 -2.96898 -1.8681 111.824 17.4248 -0.649264 -4.53704e-008 -2.84039e-006 -3.13852e-006 15.6516 6.533 -1.1148 -3.40143e-006 -4.95316e-006 -3 8.02897 -4.95145 0.69771 -53.8199 -4.87476 2.6634 -114.954 15.6647 5.76303 -4.45843e-006 -1.45764e-006 8.26897e-006 -13.6282 6.17491 1.13327 1.56319e-005 -6.84274e-006 3.00001 -8.02889 -4.95143 -0.69771 177.542 -2.43278 0.936717 -180 7.01549e-015 178.934 175.422 6.18015 179.839 -1.9828e-006 2.18575e-006 0.0662786 -17.9436 67.1837 18.9087 8.13649 25.2327 -3.48774 -175.671 -3.64782 0.693421 4.54188e-006 -4.6773e-006 -1.16005 -0.883072 -6.53206 0.416836 -1.60808e-006 -3.04593e-006 -0.106156 19.5417 69.0726 -20.4686 -8.1477 25.4108 3.24684 
53.9285 85.8813 45.8321 -1.40087 -3.99509 -0.183542 -0.0914953 -1.28353 -0.301757 -0.179192 1.43861 -0.595668 -0.172192 3.08366 -0.593013 1.54409 8.18039 0.729451 -0.325616 3.38094 1.15447 59.4644 -2.962 -1.86402 111.815 17.4213 -0.643308 -4.53704e-008 -2.84039e-006 -3.13852e-006 15.6512 6.5267 -1.11268 -3.40143e-006 -4.95316e-006 -3 8.02897 -4.95145 0.69771 -53.8186 -4.87715 2.66496 -114.953 15.6625 5.75882 -4.45843e-006 -1.45764e-006 8.26897e-006 -13.6263 6.17897 1.13391 1.56319e-005 -6.84274e-006 3.00001 -8.02889 -4.95143 -0.69771 177.543 -2.43435 0.932952 -180 7.01549e-015 178.934 175.428 6.18053 179.838 -1.9828e-006 2.18575e-006 0.0662985 -17.9434 67.1834 18.9087 8.13649 25.2327 -3.48774 -175.673 -3.64944 0.693403 4.54188e-006 -4.6773e-006 -1.16011 -0.883965 -6.53454 0.416797 -1.60808e-006 -3.04593e-006 -0.106137 19.5415 69.0723 -20.4684 -8.14771 25.411 3.24656 
53.9274 85.8792 45.8278 -1.39922 -3.99837 -0.186034 -0.0913376 -1.28283 -0.302062 -0.179823 1.43963 -0.59618 -0.172818 3.08468 -0.593515 1.54169 8.19342 0.729136 -0.324253 3.3703 1.15368 59.4669 -2.95532 -1.86014 111.805 17.4178 -0.637377 -4.53704e-008 -2.84039e-006 -3.13852e-006 15.6508 6.52057 -1.11061 -3.40143e-006 -4.95316e-006 -3 8.02897 -4.95145 0.69771 -53.8172 -4.8792 2.66627 -114.952 15.6601 5.75448 -4.45843e-006 -1.45764e-006 8.26897e-006 -13.6243 6.18296 1.13454 1.56319e-005 -6.84274e-006 3.00001 -8.02889 -4.95143 -0.69771 177.545 -2.43584 0.928403 -180 7.01549e-015 178.934 175.435 6.18101 179.837 -1.9828e-006 2.18575e-006 0.066314 -17.9431 67.1831 18.9085 8.13649 25.2327 -3.48774 -175.675 -3.6507 0.693438 4.54188e-006 -4.6773e-006 -1.16018 -0.884733 -6.53749 0.416776 -1.60808e-006 -3.04593e-006 -0.106139 19.5416 69.0724 -20.4685 -8.14772 25.4112 3.24634 
53.9283 85.8803 45.8273 -1.39764 -4.00154 -0.188348 -0.0911869 -1.28214 -0.302363 -0.180468 1.44065 -0.596657 -0.173459 3.08569 -0.593982 1.54047 8.20563 0.728574 -0.324281 3.36078 1.15288 59.4697 -2.94905 -1.85654 111.795 17.4143 -0.63148 -4.53704e-008 -2.84039e-006 -3.13852e-006 15.6506 6.51465 -1.10861 -3.40143e-006 -4.95316e-006 -3 8.02897 -4.95145 0.69771 -53.8156 -4.88079 2.66726 -114.951 15.6576 5.74998 -4.45843e-006 -1.45764e-006 8.26897e-006 -13.6222 6.18686 1.13516 1.56319e-005 -6.84274e-006 3.00001 -8.02889 -4.95143 -0.69771 177.548 -2.4372 0.922777 -180 7.01549e-015 178.933 175.444 6.18159 179.836 -1.9828e-006 2.18575e-006 0.0663232 -17.9429 67.1827 18.9083 8.13649 25.2327 -3.48774 -175.676 -3.65147 0.693546 4.54188e-006 -4.6773e-006 -1.16023 -0.885328 -6.54108 0.41678 -1.60808e-006 -3.04593e-006 -0.106169 19.542 69.0729 -20.4689 -8.14773 25.4113 3.24621 
53.9143 85.882 45.811 -1.39618 -4.00457 -0.190437 -0.0910453 -1.28147 -0.302661 -0.181131 1.44165 -0.597089 -0.174117 3.0867 -0.594403 1.54074 8.21678 0.727699 -0.326081 3.35266 1.15208 59.4728 -2.94332 -1.8533 111.785 17.4107 -0.625626 -4.53704e-008 -2.84039e-006 -3.13852e-006 15.6504 6.50901 -1.1067 -3.40143e-006 -4.95316e-006 -3 8.02897 -4.95145 0.69771 -53.8139 -4.88178 2.66782 -114.949 15.655 5.74526 -4.45843e-006 -1.45764e-006 8.26897e-006 -13.6199 6.19065 1.13576 1.56319e-005 -6.84274e-006 3.00001 -8.02889 -4.95143 -0.69771 177.551 -2.4384 0.91578 -180 7.01549e-015 178.933 175.454 6.1823 179.835 -1.9828e-006 2.18575e-006 0.0663246 -17.9425 67.1823 18.9079 8.13649 25.2327 -3.48774 -175.678 -3.65162 0.693745 4.54188e-006 -4.6773e-006 -1.16028 -0.885705 -6.54547 0.416817 -1.60808e-006 -3.04593e-006 -0.106235 19.5428 69.0739 -20.4699 -8.14773 25.4113 3.2462 
